SplineFontDB: 3.2
FontName: ExploreSans
FullName: Explore Sans Bold
FamilyName: Explore Sans
Weight: Bold
Copyright: Copyright (c) 2024, Bastien
UComments: "2024-12-25: Created with FontForge (http://fontforge.org)"
Version: 001.000
ItalicAngle: 0
UnderlinePosition: -102
UnderlineWidth: 51
Ascent: 800
Descent: 224
InvalidEm: 0
LayerCount: 2
Layer: 0 0 "Arri+AOgA-re" 1
Layer: 1 0 "Avant" 0
XUID: [1021 760 1580941675 4706664]
FSType: 0
OS2Version: 0
OS2_WeightWidthSlopeOnly: 0
OS2_UseTypoMetrics: 1
CreationTime: 1735138560
ModificationTime: 1757758653
PfmFamily: 33
TTFWeight: 700
TTFWidth: 5
LineGap: 192
VLineGap: 0
OS2TypoAscent: 800
OS2TypoAOffset: 0
OS2TypoDescent: -224
OS2TypoDOffset: 0
OS2TypoLinegap: 192
OS2WinAscent: 800
OS2WinAOffset: 0
OS2WinDescent: 224
OS2WinDOffset: 0
HheadAscent: 800
HheadAOffset: 0
HheadDescent: 224
HheadDOffset: 0
OS2FamilyClass: 2049
OS2Vendor: 'PfEd'
Lookup: 258 0 0 "ExploreSans-Kerning Latin" { "ExploreSans-Kerning Latin-1" [153,0,4] } ['kern' ('DFLT' <'dflt' > 'latn' <'dflt' > ) ]
MarkAttachClasses: 1
DEI: 91125
KernClass2: 37 35 "ExploreSans-Kerning Latin-1"
 50 A Agrave Aacute Acircumflex Atilde Adieresis Aring
 10 C Ccedilla
 1 D
 1 F
 1 G
 1 J
 1 K
 1 L
 46 O Q Ograve Oacute Ocircumflex Otilde Odieresis
 1 P
 1 R
 1 S
 1 T
 37 U Ugrave Uacute Ucircumflex Udieresis
 1 V
 1 W
 1 X
 8 Y Yacute
 50 a agrave aacute acircumflex atilde adieresis aring
 3 b p
 10 c ccedilla
 40 e ae egrave eacute ecircumflex edieresis
 1 f
 1 g
 46 i igrave iacute icircumflex idieresis dotlessi
 1 j
 1 k
 1 l
 49 ograve oacute ocircumflex otilde odieresis oslash
 1 r
 1 s
 1 t
 1 v
 1 w
 1 x
 18 y yacute ydieresis
 50 A Agrave Aacute Acircumflex Atilde Adieresis Aring
 10 C Ccedilla
 1 D
 1 G
 1 J
 1 K
 1 L
 46 O Q Ograve Oacute Ocircumflex Otilde Odieresis
 1 R
 1 S
 1 T
 1 V
 1 W
 1 X
 8 Y Yacute
 53 a agrave aacute acircumflex atilde adieresis aring ae
 10 c ccedilla
 3 d q
 37 e egrave eacute ecircumflex edieresis
 1 f
 1 g

StartChar: A
Encoding: 256 65 0
GlifName: A_
Width: 696
VWidth: 1048
Flags: HW
HStem: 0 21G<4 202.053 497.631 692> 153 140<281.392 420.512> 688 20G<224.782 473.395>
AnchorPoint: "AccentCenter" 353 881 basechar 0
LayerCount: 2
Fore
SplineSet
350 528 m 1
 281 293 l 1
 421 293 l 1
 354 528 l 1
 350 528 l 1
231 708 m 1
 467 708 l 1
 692 0 l 1
 503 0 l 1
 460 153 l 1
 241 153 l 1
 196 0 l 1
 4 0 l 1
 231 708 l 1
EndSplineSet
Colour: ff0000
EndChar

StartChar: B
Encoding: 257 66 1
GlifName: B_
Width: 673
VWidth: 1048
Flags: HW
HStem: 0 160<256 430.236> 297 140<256 408.181> 548 160<256 405.979>
VStem: 64 192<160 297 437 548> 418 192<448.75 536.594> 449 192<176.244 280.579>
LayerCount: 2
Fore
SplineSet
256 548 m 1xf8
 256 437 l 1
 350 437 l 2
 394 437 418 456 418 494 c 0
 418 528 395 548 351 548 c 2
 256 548 l 1xf8
256 297 m 1
 256 160 l 5
 362 160 l 6
 418 160 449 179 449 228 c 0xf4
 449 279 419 297 359 297 c 2
 256 297 l 1
64 708 m 1
 383 708 l 2
 507 708 610 642 610 531 c 0xf8
 610 436 566 390 508 373 c 1
 591 356 641 310 641 196 c 0
 641 56 519 0 403 0 c 2
 64 0 l 1
 64 708 l 1
EndSplineSet
EndChar

StartChar: C
Encoding: 258 67 2
GlifName: C_
Width: 665
VWidth: 1048
Flags: HW
HStem: -7 156<303.011 476.098> 560 156<309.4 468.181>
VStem: 32 192<237.506 462.292>
LayerCount: 2
Fore
SplineSet
374 716 m 0
 487 716 552 687 641 618 c 1
 560 503 l 1
 511 544 463 564 392 564 c 0
 287 564 224 485 224 353 c 0
 224 218 281 145 395 145 c 0
 450 145 522 158 579 210 c 1
 655 87 l 1
 598 40 511 -7 375 -7 c 0
 168 -7 32 132 32 353 c 0
 32 577 177 716 374 716 c 0
EndSplineSet
EndChar

StartChar: D
Encoding: 259 68 3
GlifName: D_
Width: 695
VWidth: 1048
Flags: HW
HStem: 0 160<256 399.02> 548 160<256 394.769>
VStem: 64 192<160 548> 471 192<237.075 472.903>
LayerCount: 2
Fore
SplineSet
256 548 m 5
 256 160 l 1
 304 160 l 2
 423 160 471 226 471 361 c 0
 471 490 419 548 306 548 c 2
 256 548 l 5
64 708 m 1
 328 708 l 2
 542 708 663 566 663 361 c 0
 663 138 541 0 324 0 c 2
 64 0 l 1
 64 708 l 1
EndSplineSet
EndChar

StartChar: E
Encoding: 260 69 4
GlifName: E_
Width: 624
VWidth: 1048
Flags: HW
HStem: 0 160<256 584> 288 150<256 512> 548 160<256 570>
VStem: 64 192<160 288 438 548>
AnchorPoint: "AccentCenter" 339 880 basechar 0
LayerCount: 2
Fore
SplineSet
64 708 m 5
 570 708 l 1
 570 548 l 1
 256 548 l 1
 256 438 l 1
 512 438 l 1
 512 288 l 1
 256 288 l 1
 256 160 l 1
 584 160 l 1
 584 0 l 1
 64 0 l 1
 64 708 l 5
EndSplineSet
EndChar

StartChar: F
Encoding: 261 70 5
GlifName: F_
Width: 609
VWidth: 1048
Flags: HW
HStem: 0 21G<64 256> 275 150<256 483> 543 165<256 561>
VStem: 64 192<0 275 425 543>
LayerCount: 2
Fore
SplineSet
64 708 m 5
 561 708 l 1
 561 543 l 1
 256 543 l 1
 256 425 l 1
 483 425 l 1
 483 275 l 1
 256 275 l 1
 256 0 l 1
 64 0 l 1
 64 708 l 5
EndSplineSet
Colour: ff0000
EndChar

StartChar: G
Encoding: 262 71 6
GlifName: G_
Width: 700
VWidth: 1048
Flags: HW
HStem: -8 151<299.488 471.723> 282 139<362 474> 561 155<297.66 500.325>
VStem: 32 192<224.083 477.168> 474 178<145.872 282>
LayerCount: 2
Fore
SplineSet
383 716 m 0
 476 716 556 694 644 621 c 1
 558 505 l 1
 506 543 464 561 386 561 c 0
 280 561 224 495 224 349 c 0
 224 203 278 143 392 143 c 0
 426 143 467 147 474 148 c 1
 474 282 l 5
 362 282 l 5
 362 421 l 5
 652 421 l 5
 652 33 l 1
 621 22 512 -8 395 -8 c 0
 164 -8 32 98 32 352 c 0
 32 601 168 716 383 716 c 0
EndSplineSet
EndChar

StartChar: H
Encoding: 263 72 7
GlifName: H_
Width: 716
VWidth: 1048
Flags: HW
HStem: 0 21G<64 256 460 652> 281 170<256 460> 688 20G<64 256 460 652>
VStem: 64 192<0 281 451 708> 460 192<0 281 451 708>
LayerCount: 2
Fore
SplineSet
64 708 m 5
 256 708 l 1
 256 451 l 1
 460 451 l 1
 460 708 l 1
 652 708 l 1
 652 0 l 1
 460 0 l 1
 460 281 l 1
 256 281 l 1
 256 0 l 1
 64 0 l 1
 64 708 l 5
EndSplineSet
EndChar

StartChar: I
Encoding: 264 73 8
GlifName: I_
Width: 321
VWidth: 1048
Flags: W
HStem: 0 21G<65 257> 688 20G<65 257>
VStem: 65 192<0 708>
AnchorPoint: "AccentCenter" 157 880 basechar 0
LayerCount: 2
Fore
SplineSet
65 708 m 1
 257 708 l 1
 257 0 l 1
 65 0 l 1
 65 708 l 1
EndSplineSet
EndChar

StartChar: J
Encoding: 265 74 9
GlifName: J_
Width: 466
VWidth: 1048
Flags: HW
HStem: -8 159<34 179.533> 5 147<34 143.191> 688 20G<210 402>
VStem: 210 192<184.407 708>
LayerCount: 2
Fore
SplineSet
210 708 m 5xb0
 402 708 l 5
 402 276 l 2
 402 80 294 -8 146 -8 c 0xb0
 86 -8 31 3 22 5 c 1
 34 152 l 1x70
 118 151 l 0
 180 151 210 190 210 273 c 2
 210 708 l 5xb0
EndSplineSet
EndChar

StartChar: K
Encoding: 266 75 10
GlifName: K_
Width: 701
VWidth: 1048
Flags: HW
HStem: 0 21G<64 256 442.464 689> 688 20G<64 256 441.851 687>
VStem: 64 192<0 260.644 458.727 708>
LayerCount: 2
Fore
SplineSet
64 708 m 1
 256 708 l 1
 256 459 l 1
 280 459 l 1
 456 708 l 1
 687 708 l 1
 405 360 l 1
 689 0 l 1
 456 0 l 1
 280 261 l 1
 256 261 l 1
 256 0 l 1
 64 0 l 1
 64 708 l 1
EndSplineSet
Colour: ff0000
EndChar

StartChar: L
Encoding: 267 76 11
GlifName: L_
Width: 600
VWidth: 1048
Flags: HW
HStem: 0 160<256 552> 688 20G<64 256>
VStem: 64 192<160 708>
LayerCount: 2
Fore
SplineSet
64 708 m 1
 256 708 l 1
 256 160 l 1
 552 160 l 1
 552 0 l 1
 64 0 l 1
 64 708 l 1
EndSplineSet
EndChar

StartChar: M
Encoding: 268 77 12
GlifName: M_
Width: 840
VWidth: 1048
Flags: HW
HStem: 0 21G<64 256 584 776> 688 20G<64 265.511 574.16 776>
VStem: 64 192<0 359> 584 192<0 359>
LayerCount: 2
Fore
SplineSet
64 708 m 1
 256 708 l 1
 417 369 l 1
 584 708 l 1
 776 708 l 1
 776 0 l 1
 584 0 l 1
 584 359 l 1
 488 148 l 1
 354 148 l 1
 256 359 l 1
 256 0 l 1
 64 0 l 1
 64 708 l 1
EndSplineSet
EndChar

StartChar: N
Encoding: 269 78 13
GlifName: N_
Width: 757
VWidth: 1048
Flags: HW
HStem: 0 21G<64 256 488.626 693> 688 20G<64 269.032 501 693>
VStem: 64 192<0 396> 501 192<332 708>
LayerCount: 2
Fore
SplineSet
64 708 m 5
 256 708 l 1
 501 332 l 1
 501 708 l 1
 693 708 l 1
 693 0 l 5
 501 0 l 5
 256 396 l 1
 256 0 l 1
 64 0 l 1
 64 708 l 5
EndSplineSet
EndChar

StartChar: O
Encoding: 270 79 14
GlifName: O_
Width: 720
VWidth: 1048
Flags: W
HStem: -8 160<293.593 431.254> 556 160<288.734 427.886>
VStem: 32 192<230.949 480.675> 496 192<230.425 476.175>
AnchorPoint: "AccentCenter" 362 881 basechar 0
LayerCount: 2
Fore
SplineSet
361 716 m 0
 566 716 688 580 688 357 c 4
 688 131 562 -8 360 -8 c 0
 158 -8 32 132 32 357 c 4
 32 580 156 716 361 716 c 0
360 556 m 0
 272 556 224 484 224 357 c 4
 224 227 274 152 361 152 c 0
 447 152 496 226 496 356 c 4
 496 484 448 556 360 556 c 0
EndSplineSet
EndChar

StartChar: P
Encoding: 271 80 15
GlifName: P_
Width: 680
VWidth: 1048
Flags: HW
HStem: 0 21G<64 256> 216 160<256 432.002> 548 160<256 431.116>
VStem: 64 192<0 215.799 375.75 548> 456 192<400.566 524.426>
LayerCount: 2
Fore
SplineSet
256 548 m 1
 256 376 l 1
 368 376 l 2
 425 376 456 407 456 464 c 0
 456 518 424 548 368 548 c 2
 256 548 l 1
64 708 m 1
 379 708 l 2
 545 708 648 614 648 464 c 0
 648 306 544 216 360 216 c 2
 256 216 l 1
 256 0 l 1
 64 0 l 1
 64 708 l 1
EndSplineSet
Colour: ff0000
EndChar

StartChar: Q
Encoding: 272 81 16
GlifName: Q_
Width: 720
VWidth: 1048
Flags: HW
HStem: -184 150<442.99 610> -7 23<264 430> 556 160<290.92 430.779>
VStem: 32 192<230.254 475.826> 496 192<229.703 479.284>
AnchorPoint: "AccentCenter" 340 880 basechar 0
LayerCount: 2
Fore
SplineSet
360 716 m 0
 562 716 688 578 688 357 c 0
 688 136 559 -7 360 -7 c 0
 161 -7 32 136 32 357 c 0
 32 577 159 716 360 716 c 0
360 556 m 0
 276 556 224 480 224 357 c 0
 224 225 272 153 360 153 c 0
 447 153 496 226 496 357 c 0
 496 488 449 556 360 556 c 0
264 16 m 1
 430 16 l 1
 430 -13 461 -34 498 -34 c 2
 610 -34 l 1
 624 -178 l 1
 576 -182 518 -184 484 -184 c 0
 346 -184 264 -109 264 16 c 1
EndSplineSet
EndChar

StartChar: R
Encoding: 273 82 17
GlifName: R_
Width: 688
VWidth: 1048
Flags: HW
HStem: 0 21G<64 256 452.908 672> 548 160<256 421.043>
VStem: 64 192<0 215 375 548> 448 192<401.109 524.242>
LayerCount: 2
Fore
SplineSet
256 550 m 1
 256 373 l 1
 367 373 l 2
 416 373 448 405 448 466 c 4
 448 520 420 550 363 550 c 2
 256 550 l 1
64 708 m 1
 368 708 l 2
 548 708 640 611 640 470 c 0
 640 368 591 287 502 246 c 1
 672 0 l 1
 466 0 l 1
 325 215 l 1
 256 215 l 1
 256 0 l 1
 64 0 l 1
 64 708 l 1
EndSplineSet
Colour: ff0000
EndChar

StartChar: S
Encoding: 274 83 18
GlifName: S_
Width: 626
VWidth: 1048
Flags: HW
HStem: -8 147<170.184 398.325> 562 154<239.965 448.786>
VStem: 30 189<453.263 540.621> 422 188<161.976 246.061>
LayerCount: 2
Fore
SplineSet
325 716 m 0
 442 716 524 688 605 620 c 1
 525 501 l 1
 474 539 399 562 327 562 c 0
 253 562 219 536 219 496 c 0
 219 456 239 447 317 433 c 2
 378 422 l 2
 541 395 610 326 610 208 c 0
 610 68 509 -8 295 -8 c 0
 193 -8 66 30 16 75 c 1
 95 203 l 1
 153 159 219 139 302 139 c 0
 384 139 422 162 422 202 c 0
 422 245 397 258 310 273 c 2
 255 283 l 2
 109 307 30 374 30 505 c 0
 30 636 131 716 325 716 c 0
EndSplineSet
EndChar

StartChar: T
Encoding: 275 84 19
GlifName: T_
Width: 671
VWidth: 1048
Flags: HW
HStem: 0 21G<241 433> 548 160<40 241 433 631>
VStem: 241 192<0 548>
LayerCount: 2
Fore
SplineSet
40 708 m 1
 631 708 l 1
 631 548 l 1
 433 548 l 1
 433 0 l 1
 241 0 l 1
 241 548 l 1
 40 548 l 1
 40 708 l 1
EndSplineSet
Colour: ff0000
EndChar

StartChar: U
Encoding: 276 85 20
GlifName: U_
Width: 716
VWidth: 1048
Flags: HW
HStem: -7 160<289.706 427.507> 688 20G<56 248 468 660>
VStem: 56 192<196.719 708> 468 192<202.891 708>
AnchorPoint: "AccentCenter" 383 880 basechar 0
LayerCount: 2
Fore
SplineSet
56 708 m 1
 248 708 l 1
 248 299 l 1
 248 208 277 153 358 153 c 3
 439 153 468 208 468 299 c 1
 468 708 l 1
 660 708 l 1
 660 281 l 5
 660 80 528 -7 357 -7 c 3
 175 -7 56 80 56 283 c 1
 56 708 l 1
EndSplineSet
EndChar

StartChar: V
Encoding: 277 86 21
GlifName: V_
Width: 697
VWidth: 1048
Flags: HW
HStem: 0 21G<238.277 457.751> 688 20G<7 206.384 490.559 690>
LayerCount: 2
Fore
SplineSet
7 708 m 1
 200 708 l 1
 348 245 l 1
 497 708 l 1
 690 708 l 1
 451 0 l 1
 245 0 l 1
 7 708 l 1
EndSplineSet
Colour: ff0000
EndChar

StartChar: W
Encoding: 278 87 22
GlifName: W_
Width: 890
VWidth: 1048
Flags: HW
HStem: 0 21G<162.395 375.492 518.621 727.605> 688 20G<4 183.814 355.96 541.814 706.186 886>
LayerCount: 2
Fore
SplineSet
4 708 m 5
 180 708 l 5
 267 250 l 5
 360 708 l 5
 538 708 l 5
 624 257 l 5
 710 708 l 5
 886 708 l 5
 723 0 l 5
 523 0 l 5
 448 343 l 5
 371 0 l 5
 167 0 l 5
 4 708 l 5
EndSplineSet
Colour: ff0000
EndChar

StartChar: X
Encoding: 279 88 23
GlifName: X_
Width: 710
VWidth: 1048
Flags: HW
HStem: 0 21G<4 218.131 490.787 706> 688 20G<4 218.181 490.737 706>
LayerCount: 2
Fore
SplineSet
4 708 m 1
 206 708 l 1
 354 465 l 1
 503 708 l 1
 706 708 l 1
 471 354 l 1
 706 0 l 1
 503 0 l 1
 354 244 l 1
 206 0 l 1
 4 0 l 1
 229 354 l 1
 4 708 l 1
EndSplineSet
EndChar

StartChar: Y
Encoding: 280 89 24
GlifName: Y_
Width: 647
VWidth: 1048
Flags: HW
HStem: 0 21G<228.25 420.25> 688 20G<4 197.511 449.632 643>
VStem: 228 192<0 268.648>
AnchorPoint: "AccentCenter" 313 880 basechar 0
LayerCount: 2
Fore
SplineSet
4 708 m 1
 188 708 l 1
 325 406 l 1
 458 708 l 1
 643 708 l 1
 420 270 l 1
 420 0 l 1
 228 0 l 1
 228 269 l 1
 4 708 l 1
EndSplineSet
Colour: ff0000
EndChar

StartChar: Z
Encoding: 281 90 25
GlifName: Z_
Width: 662
VWidth: 1048
Flags: HW
HStem: 0 160<286 614> 548 160<48 379>
LayerCount: 2
Fore
SplineSet
48 708 m 1
 614 708 l 1
 614 580 l 1
 286 160 l 1
 614 160 l 1
 614 0 l 1
 48 0 l 1
 48 128 l 1
 379 548 l 5
 48 548 l 1
 48 708 l 1
EndSplineSet
EndChar

StartChar: bracketleft
Encoding: 282 91 26
GlifName: bracketleft
Width: 382
VWidth: 1048
Flags: HW
HStem: -64 144<221 351> 675 144<221 351>
VStem: 61 290<-64 80 675 819> 61 160<80 675>
LayerCount: 2
Fore
SplineSet
61 819 m 1
 351 819 l 1
 351 675 l 1
 221 675 l 1
 221 80 l 1
 351 80 l 1
 351 -64 l 1
 61 -64 l 1
 61 819 l 1
EndSplineSet
EndChar

StartChar: backslash
Encoding: 283 92 27
GlifName: backslash
Width: 407
VWidth: 1048
Flags: HW
HStem: 748 20G<1 141.493>
LayerCount: 2
Fore
SplineSet
474 -35 m 1
 342 -35 l 1
 1 768 l 1
 133 768 l 1
 474 -35 l 1
EndSplineSet
EndChar

StartChar: bracketright
Encoding: 284 93 28
GlifName: bracketright
Width: 382
VWidth: 1048
Flags: HW
HStem: -64 144<31 161> 675 144<31 161>
VStem: 31 290<-64 80 675 819> 161 160<80 675>
LayerCount: 2
Fore
SplineSet
31 819 m 1
 321 819 l 1
 321 -64 l 1
 31 -64 l 1
 31 80 l 1
 161 80 l 1
 161 675 l 1
 31 675 l 1
 31 819 l 1
EndSplineSet
EndChar

StartChar: asciicircum
Encoding: 285 94 29
GlifName: asciicircum
Width: 489
VWidth: 1048
Flags: HW
HStem: 667 185
VStem: 77 327
LayerCount: 2
Fore
SplineSet
77 716 m 25
 208 852 l 1
 273 852 l 25
 404 716 l 25
 364 667 l 25
 241 786 l 25
 118 667 l 25
 77 716 l 25
EndSplineSet
EndChar

StartChar: underscore
Encoding: 286 95 30
GlifName: underscore
Width: 561
VWidth: 1048
Flags: HW
HStem: -108 108<95 496>
LayerCount: 2
Fore
SplineSet
95 0 m 1
 496 0 l 1
 496 -108 l 5
 95 -108 l 5
 95 0 l 1
EndSplineSet
EndChar

StartChar: grave
Encoding: 287 96 31
GlifName: grave
Width: 275
VWidth: 1048
Flags: HW
HStem: 527 241
VStem: 32 267
LayerCount: 2
Fore
SplineSet
174 768 m 1
 299 527 l 1
 188 527 l 1
 32 768 l 1
 174 768 l 1
EndSplineSet
EndChar

StartChar: a
Encoding: 288 97 32
GlifName: a
Width: 573
Flags: HW
HStem: -8 125<135 275.352> -8 110<511.76 563.508> 0 102<512.994 565> 205 111<215.129 326> 406 122<130.556 305.73>
VStem: 24 184<123.169 198.446> 326 182<130.896 205 316 382.353>
AnchorPoint: "AccentCenter" 273 687 basechar 0
AnchorPoint: "Ring" 277 687 basechar 0
LayerCount: 2
Fore
SplineSet
326 205 m 5
 262 205 l 2x9e
 221 205 208 187 208 162 c 0
 208 138 222 117 258 117 c 0
 286 117 311 129 326 155 c 1
 326 205 l 5
254 528 m 0
 418 528 508 455 508 307 c 2
 508 150 l 2
 508 117 520 102 552 102 c 2x5e
 565 102 l 1
 565 0 l 1x3e
 533 -4 512 -8 463 -8 c 0x5e
 398 -8 352 15 326 67 c 1
 304 31 269 -8 187 -8 c 0
 83 -8 24 53 24 156 c 0
 24 261 120 316 251 316 c 2
 326 316 l 1
 326 333 l 2
 326 382 293 406 234 406 c 0
 182 406 128 387 108 371 c 1
 53 473 l 1
 111 511 176 528 254 528 c 0
EndSplineSet
EndChar

StartChar: b
Encoding: 289 98 33
GlifName: b
Width: 652
VWidth: 1048
Flags: HW
HStem: -8 136<290.502 446.602> 0 21G<56 215.355> 388 140<288.818 448.906> 696 20G<56 244>
VStem: 56 188<159.894 359.472 468.035 716> 428 192<177.224 348.329>
LayerCount: 2
Fore
SplineSet
56 716 m 1x7c
 244 716 l 1
 244 468 l 1
 278 511 327 528 391 528 c 0
 506 528 620 444 620 262 c 0
 620 89 507 -8 382 -8 c 0xbc
 314 -8 262 24 235 62 c 1
 206 0 l 1
 56 0 l 1
 56 716 l 1x7c
332 388 m 0
 299 388 264 369 244 330 c 1
 244 182 l 1
 261 154 292 128 336 128 c 0
 384 128 428 166 428 256 c 0
 428 358 382 388 332 388 c 0
EndSplineSet
EndChar

StartChar: c
Encoding: 290 99 34
GlifName: c
Width: 560
VWidth: 1048
Flags: HW
HStem: -8 141<270.58 438.849> 392 136<274.514 442.346>
VStem: 40 188<175.164 340.404>
LayerCount: 2
Fore
SplineSet
322 528 m 0
 434 528 490 502 548 460 c 0
 475 350 l 0
 442 375 399 392 347 392 c 0
 267 392 228 336 228 254 c 0
 228 176 267 133 346 133 c 0
 409 133 454 159 480 184 c 0
 560 76 l 0
 511 31 437 -8 321 -8 c 0
 147 -8 40 89 40 259 c 0
 40 426 148 528 322 528 c 0
EndSplineSet
EndChar

StartChar: d
Encoding: 291 100 35
GlifName: d
Width: 652
VWidth: 1048
Flags: HW
HStem: -8 136<205.398 362.35> 0 21G<436.617 596> 388 140<203.094 363.182> 696 20G<408 596>
VStem: 32 192<177.224 348.329> 408 188<159.894 359.472 468.035 716>
LayerCount: 2
Fore
SplineSet
408 716 m 1xbc
 596 716 l 1
 596 0 l 1
 446 0 l 1x7c
 418 60 l 1
 388 24 338 -8 270 -8 c 0
 145 -8 32 89 32 262 c 0
 32 444 146 528 261 528 c 0
 325 528 374 511 408 468 c 1
 408 716 l 1xbc
320 388 m 4
 270 388 224 356 224 265 c 0
 224 164 268 128 316 128 c 0xbc
 360 128 391 148 408 176 c 1
 408 336 l 1
 388 375 353 388 320 388 c 4
EndSplineSet
EndChar

StartChar: e
Encoding: 292 101 36
GlifName: e
Width: 605
VWidth: 1048
Flags: HWO
HStem: -8 132<257.398 446.97> 212 98<224 393> 399 129<250 369.215>
VStem: 32 192<155.918 212 310 374.787> 393 180<310 376.52>
AnchorPoint: "AccentCenter" 311 686 basechar 0
LayerCount: 2
Fore
SplineSet
308 399 m 0
 257 399 224 368 224 310 c 1
 393 310 l 1
 393 315 l 2
 393 371 359 399 308 399 c 0
312 528 m 0
 466 528 573 453 573 286 c 0
 573 259 569 229 562 212 c 1
 224 212 l 1
 224 166 256 124 341 124 c 0
 417 124 474 157 494 173 c 1
 561 65 l 1
 497 30 425 -8 303 -8 c 0
 140 -8 32 81 32 261 c 0
 32 447 144 528 312 528 c 0
EndSplineSet
EndChar

StartChar: f
Encoding: 293 102 37
GlifName: f
Width: 460
VWidth: 1048
Flags: HW
HStem: 0 21G<116 308> 370 150<24 116 308 424> 601 131<318.465 423>
VStem: 116 192<0 370 520 589.603>
LayerCount: 2
Fore
SplineSet
320 732 m 0
 376 732 419 729 436 727 c 1
 423 601 l 1
 372 601 l 1
 329 601 308 583 308 534 c 2
 308 520 l 1
 424 520 l 1
 424 370 l 1
 308 370 l 1
 308 0 l 1
 116 0 l 1
 116 370 l 1
 24 370 l 1
 24 520 l 1
 116 520 l 1
 116 542 l 2
 116 662 181 732 320 732 c 0
EndSplineSet
EndChar

StartChar: g
Encoding: 294 103 38
GlifName: g
Width: 626
VWidth: 1048
Flags: HW
HStem: -191 127<123.495 419.301> 0 140<204.232 424.119> 379 141<503.432 583.996> 412 116<207.737 313.622>
VStem: 29 170<313.837 402.279> 51 151<75.5 172.998> 324 170<314.523 378.248> 404 90<379 457> 427 167<-50.4228 41.8032>
LayerCount: 2
Fore
SplineSet
259 528 m 0xd8
 434 528 494 457 494 355 c 0xda
 494 252 429 203 299 191 c 0
 217 183 202 177 202 161 c 0
 202 148 216 140 242 140 c 2
 419 140 l 2
 529 140 594 85 594 -2 c 0
 594 -136 503 -191 300 -191 c 0
 152 -191 29 -145 -10 -125 c 1
 39 -15 l 1
 64 -26 173 -64 294 -64 c 0
 395 -64 427 -52 427 -26 c 0
 427 -10 412 0 393 0 c 2
 215 0 l 2
 98 0 51 37 51 114 c 0xd480
 51 160 77 193 146 208 c 1
 71 228 29 287 29 353 c 0
 29 462 97 528 259 528 c 0xd8
260 412 m 0
 217 412 199 394 199 357 c 0
 199 325 218 305 260 305 c 0
 305 305 324 325 324 355 c 0
 324 392 305 412 260 412 c 0
404 379 m 1xe1
 404 458 458 520 552 520 c 2
 584 520 l 1
 584 379 l 1
 404 379 l 1xe1
EndSplineSet
Colour: ff0000
EndChar

StartChar: h
Encoding: 295 104 39
GlifName: h
Width: 637
VWidth: 1048
Flags: HW
HStem: 0 21G<57 249 389 581> 370 158<303.759 459.5> 688 20G<57 249>
VStem: 57 192<0 352.486 448 708> 389 192<0 353.45>
LayerCount: 2
Fore
SplineSet
57 708 m 1
 249 708 l 1
 249 448 l 1
 276 501 324 528 402 528 c 0
 517 528 581 449 581 318 c 2
 581 0 l 1
 389 0 l 1
 389 304 l 2
 389 345 365 370 326 370 c 0
 293 370 263 354 249 328 c 1
 249 0 l 1
 57 0 l 1
 57 708 l 1
EndSplineSet
EndChar

StartChar: i
Encoding: 296 105 40
GlifName: i
Width: 346
VWidth: 1048
Flags: HW
HStem: 0 21G<94.5 286.5> 374 146<10 94.5> 549 193<131.616 254.384>
VStem: 94 192<0 374 588.267 703.733>
LayerCount: 2
Fore
SplineSet
193 743 m 0
 246 743 290 699 290 646 c 0
 290 593 246 549 193 549 c 0
 140 549 96 593 96 646 c 0
 96 699 140 743 193 743 c 0
10 520 m 1
 286 520 l 1
 286 0 l 1
 94 0 l 1
 94 374 l 1
 10 374 l 1
 10 520 l 1
EndSplineSet
EndChar

StartChar: j
Encoding: 297 106 41
GlifName: j
Width: 308
VWidth: 1048
Flags: HW
HStem: 500 20G<59.8564 251.829> 554 193<93.6161 216.384>
VStem: 58 193<-28.7832 520 589.216 711.984>
LayerCount: 2
Fore
SplineSet
60 520 m 1
 252 520 l 1
 252 22 l 1
 252 -123 201 -191 11 -191 c 1
 -10 -191 l 1
 -10 -34 l 1
 11 -34 l 1
 47 -34 60 -20 60 16 c 1
 60 520 l 1
155 747 m 0
 208 747 252 704 252 651 c 0
 252 598 208 554 155 554 c 0
 102 554 58 598 58 651 c 0
 58 704 102 747 155 747 c 0
EndSplineSet
Colour: ff0000
EndChar

StartChar: k
Encoding: 298 107 42
GlifName: k
Width: 630
VWidth: 1048
Flags: W
HStem: 0 21G<64 256 404.919 624> 499 20G<392.289 610> 688 20G<64 256>
VStem: 64 192<0 185 360 708>
LayerCount: 2
Fore
SplineSet
64 708 m 1
 256 708 l 1
 256 360 l 1
 297 360 l 1
 406 519 l 1
 610 519 l 1
 436 275 l 1
 624 0 l 1
 418 0 l 1
 297 185 l 1
 256 185 l 1
 256 0 l 1
 64 0 l 1
 64 708 l 1
EndSplineSet
Colour: ff0000
EndChar

StartChar: l
Encoding: 299 108 43
GlifName: l
Width: 352
VWidth: 1048
Flags: HW
HStem: -8 161<187.5 335.414> 752 20G<56 248>
VStem: 56 192<156.345 772>
LayerCount: 2
Fore
SplineSet
56 772 m 1
 248 772 l 1
 248 196 l 2
 248 167 262 153 291 153 c 1
 293 153 299 154 302 154 c 2
 335 158 l 1
 348 1 l 1
 323 -3 278 -8 241 -8 c 0
 134 -8 56 56 56 159 c 2
 56 772 l 1
EndSplineSet
EndChar

StartChar: m
Encoding: 300 109 44
GlifName: m
Width: 934
VWidth: 1048
Flags: HW
HStem: 0 21G<64 256 371 563 678 870> 384 144<306.369 419.584 587.387 739> 500 20G<64 209.778>
VStem: 64 192<0 373.548> 371 192<0 373.491> 678 192<0 368.271>
CounterMasks: 1 1c
LayerCount: 2
Fore
SplineSet
64 520 m 1xbc
 192 520 l 1xbc
 256 448 l 1
 285 499 322 528 390 528 c 0
 449 528 508 502 532 445 c 1
 565 502 602 528 688 528 c 0
 790 528 870 464 870 317 c 2
 870 0 l 1
 678 0 l 1
 678 307 l 2
 678 364 654 384 617 384 c 0
 600 384 574 375 563 358 c 1
 563 0 l 1
 371 0 l 1
 371 314 l 2
 371 369 344 384 312 384 c 0xdc
 288 384 270 369 256 357 c 1
 256 0 l 1
 64 0 l 1
 64 520 l 1xbc
EndSplineSet
EndChar

StartChar: n
Encoding: 301 110 45
GlifName: n
Width: 652
VWidth: 1048
Flags: HW
HStem: 0 21G<63.9996 256 396 588> 379 149<315.79 466.5> 500 20G<63.9996 224.169>
VStem: 63.9996 192<0 357.956> 396 192<0 364.635>
AnchorPoint: "AccentCenter" 346 686 basechar 0
LayerCount: 2
Fore
SplineSet
64 520 m 1xb8
 213 520 l 1xb8
 256 443 l 1
 284 500 342 528 409 528 c 0
 524 528 588 449 588 318 c 2
 588 0 l 1
 396 0 l 1
 396 304 l 2
 396 360 372 379 333 379 c 0xd8
 300 379 266 355 256 328 c 1
 256 0 l 1
 64 0 l 1
 64 520 l 1xb8
EndSplineSet
EndChar

StartChar: o
Encoding: 302 111 46
GlifName: o
Width: 635
VWidth: 1048
Flags: W
HStem: -8 142<253.413 380.114> 387 141<254.517 379.417>
VStem: 32 192<163.396 355.235> 411 192<166.055 350.758>
AnchorPoint: "AccentCenter" 328 686 basechar 0
LayerCount: 2
Fore
SplineSet
317 387 m 4
 253 387 224 349 224 254 c 4
 224 167 252 134 317 134 c 4
 379 134 411 170 411 258 c 4
 411 347 379 387 317 387 c 4
317 528 m 0
 492 528 603 428 603 261 c 0
 603 93 491 -8 317 -8 c 0
 148 -8 32 91 32 259 c 0
 32 431 143 528 317 528 c 0
EndSplineSet
EndChar

StartChar: p
Encoding: 303 112 47
GlifName: p
Width: 660
VWidth: 1048
Flags: HW
HStem: -8 136<296.818 458.151> 388 140<299.084 401.517> 500 20G<64 226.881>
VStem: 64 188<-191 52.2023 159.679 360.285> 436 192<164.891 349.79>
LayerCount: 2
Fore
SplineSet
344 388 m 0xd8
 300 388 268 362 252 331 c 1
 252 190 l 1
 272 151 307 128 340 128 c 0
 396 128 436 161 436 260 c 0
 436 355 392 388 344 388 c 0xd8
64 520 m 1xb8
 214 520 l 1xb8
 252 461 l 1
 277 500 322 528 390 528 c 0xd8
 515 528 628 432 628 259 c 0
 628 77 514 -8 399 -8 c 0
 335 -8 286 9 252 52 c 1
 252 -191 l 1
 64 -191 l 1
 64 520 l 1xb8
EndSplineSet
EndChar

StartChar: q
Encoding: 304 113 48
GlifName: q
Width: 660
VWidth: 1048
Flags: HW
HStem: -8 136<201.889 361.372> 388 140<198.807 353.879> 500 20G<434.308 596>
VStem: 32 192<164.922 348.414> 408 188<-191 52.9647 157.315 359.739>
LayerCount: 2
Fore
SplineSet
446 520 m 1
 596 520 l 1
 596 -191 l 1
 408 -191 l 1
 408 53 l 1
 376 12 328 -8 261 -8 c 0
 125 -8 32 100 32 259 c 0
 32 419 126 528 263 528 c 0
 326 528 381 501 408 455 c 1
 446 520 l 1
316 388 m 0
 258 388 224 339 224 256 c 0
 224 172 257 128 320 128 c 0
 356 128 389 151 408 187 c 1
 408 332 l 1
 387 368 353 388 316 388 c 0
EndSplineSet
EndChar

StartChar: r
Encoding: 305 114 49
GlifName: r
Width: 425
VWidth: 1048
Flags: HW
HStem: 0 21G<56 248> 376 152<285.248 395> 500 20G<56 202.6>
VStem: 56 192<0 341.732>
LayerCount: 2
Fore
SplineSet
56 520 m 1xb0
 197 520 l 1xb0
 225 420 l 1
 235 485 292 528 368 528 c 0
 387 528 397 527 409 524 c 1
 395 376 l 1
 355 376 l 2xd0
 309 376 269 352 248 312 c 1
 248 0 l 1
 56 0 l 1
 56 520 l 1xb0
EndSplineSet
Colour: ff0000
EndChar

StartChar: s
Encoding: 306 115 50
GlifName: s
Width: 522
VWidth: 1048
Flags: HW
HStem: -8 120<130.713 335.088> 404 124<209.175 389.218>
LayerCount: 2
Fore
SplineSet
279 528 m 4
 367 528 447 503 501 459 c 5
 427 361 l 5
 389 388 332 404 276 404 c 4
 234 404 203 389 203 368 c 4
 203 349 222 338 265 331 c 6
 348 318 l 6
 455 301 511 244 511 154 c 4
 511 45 426 -8 249 -8 c 4
 145 -8 52 20 12 63 c 5
 85 161 l 5
 112 133 184 112 255 112 c 4
 307 112 341 125 341 145 c 4
 341 167 324 177 276 184 c 6
 198 195 l 6
 90 211 34 270 33 367 c 4
 33 470 122 528 279 528 c 4
EndSplineSet
EndChar

StartChar: t
Encoding: 307 116 51
GlifName: t
Width: 474
VWidth: 1048
Flags: HW
HStem: -7 150<317.509 458.154> 8 137<359.839 457.145> 372 148<16 119 311 430>
VStem: 119 192<148.759 372 520 614>
LayerCount: 2
Fore
SplineSet
119 614 m 1xb0
 311 687 l 1
 311 520 l 1
 430 520 l 1
 430 372 l 1
 311 372 l 1
 311 199 l 2
 311 161 326 143 359 143 c 1xb0
 377 143 391 144 403 145 c 2
 429 148 l 1
 446 5 l 1x70
 387 -4 358 -7 324 -7 c 0
 183 -7 119 59 119 206 c 2
 119 372 l 1
 16 372 l 1
 16 520 l 1
 119 520 l 1
 119 614 l 1xb0
EndSplineSet
EndChar

StartChar: u
Encoding: 308 117 52
GlifName: u
Width: 635
VWidth: 1048
Flags: HW
HStem: -8 153<176.5 320.338> 0 21G<419.114 579> 500 20G<56 248 387 579>
VStem: 56 192<160.917 520> 387 192<166.147 520>
AnchorPoint: "AccentCenter" 312 684 basechar 0
LayerCount: 2
Fore
SplineSet
56 520 m 5xb8
 248 520 l 1
 248 216 l 2
 248 166 271 145 310 145 c 0xb8
 343 145 373 167 387 192 c 1
 387 520 l 1
 579 520 l 1
 579 0 l 1
 430 0 l 1x78
 387 79 l 1
 359 29 301 -8 234 -8 c 0
 119 -8 56 71 56 202 c 2
 56 520 l 5xb8
EndSplineSet
EndChar

StartChar: v
Encoding: 309 118 53
GlifName: v
Width: 601
VWidth: 1048
Flags: HW
HStem: 0 21G<194.385 411.385> 500 20G<4 190.846 409.462 596>
LayerCount: 2
Fore
SplineSet
4 520 m 1
 184 520 l 1
 303 173 l 1
 416 520 l 1
 596 520 l 1
 404 0 l 1
 202 0 l 1
 4 520 l 1
EndSplineSet
Colour: ff0000
EndChar

StartChar: w
Encoding: 310 119 54
GlifName: w
Width: 821
VWidth: 1048
Flags: HW
HStem: 0 21G<117.923 336.846 478.462 697.308> 500 20G<3.5 175.615 308 513.692 644.077 817.5>
LayerCount: 2
Fore
SplineSet
4 520 m 1
 172 520 l 1
 232 225 l 1
 314 520 l 1
 508 520 l 1
 584 229 l 1
 648 520 l 1
 818 520 l 1
 692 0 l 1
 484 0 l 1
 410 293 l 1
 332 0 l 1
 122 0 l 1
 4 520 l 1
EndSplineSet
Colour: ff0000
EndChar

StartChar: x
Encoding: 311 120 55
GlifName: x
Width: 568
VWidth: 1048
Flags: W
HStem: 0 21G<4 209.409 363.942 564> 500 20G<4 209.235 363.647 564>
LayerCount: 2
Fore
SplineSet
4 520 m 1
 199 520 l 1
 286 350 l 1
 374 520 l 1
 564 520 l 1
 403 260 l 1
 564 0 l 1
 374 0 l 1
 288 171 l 5
 199 0 l 1
 4 0 l 1
 164 260 l 1
 4 520 l 1
EndSplineSet
Colour: ff0000
EndChar

StartChar: y
Encoding: 312 121 56
GlifName: y
Width: 586
VWidth: 1048
Flags: HW
HStem: 500 20G<4 224.091 381.364 582>
AnchorPoint: "AccentCenter" 274 687 basechar 0
LayerCount: 2
Fore
SplineSet
4 520 m 1
 218 520 l 1
 285 300 l 1
 298 206 l 1
 315 300 l 1
 388 520 l 1
 582 520 l 1
 292 -191 l 1
 112 -191 l 1
 207 37 l 1
 4 520 l 1
EndSplineSet
Colour: ff0000
EndChar

StartChar: z
Encoding: 313 122 57
GlifName: z
Width: 564
VWidth: 1048
Flags: HW
HStem: 0 142<285.872 524> 378 142<40 276.147>
LayerCount: 2
Fore
SplineSet
40 520 m 1
 508 520 l 1
 508 410 l 1
 286 142 l 5
 524 142 l 1
 524 0 l 1
 40 0 l 1
 40 110 l 1
 276 378 l 1
 40 378 l 1
 40 520 l 1
EndSplineSet
EndChar

StartChar: braceleft
Encoding: 314 123 58
GlifName: braceleft
Width: 357
VWidth: 1048
Flags: HW
HStem: -66 144<271.581 338.5> 675 144<271.581 338.5>
VStem: 82 172<94.8859 290.323 468.963 657.129>
LayerCount: 2
Fore
SplineSet
338 819 m 1
 338 675 l 1
 279 675 254 656 254 606 c 1
 254 514 l 1
 254 430 214 391 168 377 c 1
 214 357 254 322 254 240 c 1
 254 149 l 0
 254 99 279 78 338 78 c 1
 338 -66 l 1
 188 -66 82 12 82 133 c 1
 82 242 l 17
 82 288 60 297 18 297 c 1
 18 457 l 1
 59 457 82 478 82 530 c 9
 82 622 l 0
 82 753 188 819 338 819 c 1
EndSplineSet
EndChar

StartChar: bar
Encoding: 315 124 59
GlifName: bar
Width: 227
VWidth: 1048
Flags: HW
VStem: 77 128<-66 819>
LayerCount: 2
Fore
SplineSet
77 819 m 1
 205 819 l 1
 205 -66 l 1
 77 -66 l 1
 77 819 l 1
EndSplineSet
EndChar

StartChar: braceright
Encoding: 316 125 60
GlifName: braceright
Width: 357
VWidth: 1048
Flags: HW
HStem: -66 144<18.5 85.4189> 675 144<18.5 85.4189>
VStem: 104 172<94.8859 290.323 468.963 657.129>
LayerCount: 2
Fore
SplineSet
18 819 m 5
 168 819 276 753 276 622 c 0
 276 530 l 17
 276 478 297 457 338 457 c 1
 338 297 l 1
 296 297 276 288 276 242 c 9
 276 133 l 1
 276 12 168 -66 18 -66 c 1
 18 78 l 1
 77 78 104 99 104 149 c 0
 104 240 l 1
 104 322 144 357 190 377 c 5
 144 391 104 430 104 514 c 1
 104 606 l 1
 104 656 77 675 18 675 c 1
 18 819 l 5
EndSplineSet
EndChar

StartChar: asciitilde
Encoding: 317 126 61
GlifName: asciitilde
Width: 648
VWidth: 1048
Flags: HW
HStem: 225 66<378.297 484.61> 321 65<179 294.228>
LayerCount: 2
Fore
SplineSet
77 265 m 5
 77 265 117 386 249 386 c 4
 324 386 368 291 439 291 c 4
 497 291 525 384 525 384 c 5
 585 343 l 29
 585 343 537 225 431 225 c 4
 348 225 302 321 237 321 c 4
 162 321 128 225 128 225 c 5
 77 265 l 5
EndSplineSet
EndChar

StartChar: exclam
Encoding: 318 33 62
GlifName: exclam
Width: 290
VWidth: 1048
Flags: HW
HStem: -7 205<82.1674 207.833> 696 20G<52.5654 243.234>
VStem: 43 204<32.1674 158.216>
LayerCount: 2
Fore
SplineSet
53 716 m 1
 243 716 l 1
 216 244 l 1
 74 244 l 1
 53 716 l 1
145 198 m 0
 201 198 247 151 247 95 c 0
 247 39 201 -7 145 -7 c 0
 89 -7 43 39 43 95 c 0
 43 151 89 198 145 198 c 0
EndSplineSet
EndChar

StartChar: quotedbl
Encoding: 319 34 63
GlifName: quotedbl
Width: 414
VWidth: 1048
Flags: HW
HStem: 520 252<70 154 269 353>
VStem: 70 84<520 632.896> 269 84<520 632.896>
LayerCount: 2
Fore
SplineSet
54 772 m 1
 170 772 l 1
 154 520 l 1
 70 520 l 1
 54 772 l 1
253 772 m 1
 369 772 l 1
 353 520 l 1
 269 520 l 1
 253 772 l 1
EndSplineSet
EndChar

StartChar: numbersign
Encoding: 320 35 64
GlifName: numbersign
Width: 676
VWidth: 1048
Flags: HW
HStem: 0 21G<40 210.751 298 468.751> 153 160<24 76.3481 280.359 334.348 538.359 652> 415 160<24 138.591 342.602 396.591 600.602 652>
LayerCount: 2
Fore
SplineSet
212 724 m 5
 378 724 l 1
 343 575 l 1
 435 575 l 1
 470 724 l 1
 636 724 l 1
 601 575 l 1
 652 575 l 1
 652 415 l 1
 563 415 l 1
 538 313 l 1
 652 313 l 1
 652 153 l 1
 500 153 l 1
 464 0 l 1
 298 0 l 1
 334 153 l 1
 242 153 l 1
 206 0 l 1
 40 0 l 1
 76 153 l 1
 24 153 l 1
 24 313 l 1
 114 313 l 1
 139 415 l 1
 24 415 l 1
 24 575 l 1
 177 575 l 1
 212 724 l 5
372 313 m 1
 397 415 l 1
 305 415 l 1
 280 313 l 1
 372 313 l 1
EndSplineSet
EndChar

StartChar: dollar
Encoding: 321 36 65
GlifName: dollar
Width: 626
VWidth: 1048
Flags: HW
HStem: -8 147<170.184 398.325> 562 154<239.965 448.786>
VStem: 30 189<453.263 540.621> 261 113<-139 863> 422 188<161.976 246.061>
LayerCount: 2
Fore
SplineSet
261 863 m 5
 374 863 l 5
 374 -139 l 5
 261 -139 l 5
 261 863 l 5
EndSplineSet
Refer: 18 83 N 1 0 0 1 0 0 2
EndChar

StartChar: percent
Encoding: 322 37 66
GlifName: percent
Width: 822
VWidth: 1048
Flags: HW
HStem: -7 108<580.964 673.467> 252 109<581.171 673.26> 348 109<148.873 241.375> 608 108<149.08 241.168> 688 20G<576.667 713>
VStem: 16 119<470.031 594.474> 255 119<470.031 594.257> 448 119<114.506 238.949> 687 119<114.506 238.732>
LayerCount: 2
Fore
SplineSet
627 252 m 0xc780
 588 252 567 227 567 177 c 0
 567 128 587 101 627 101 c 0
 667 101 687 128 687 177 c 0
 687 226 666 252 627 252 c 0xc780
627 361 m 0
 760 361 806 263 806 177 c 0
 806 91 760 -7 627 -7 c 0
 497 -7 448 91 448 177 c 0
 448 263 497 361 627 361 c 0
195 608 m 0xb780
 156 608 135 583 135 533 c 0
 135 484 155 457 195 457 c 0
 235 457 255 484 255 533 c 0
 255 582 234 608 195 608 c 0xb780
195 716 m 0
 328 716 374 618 374 532 c 0
 374 446 328 348 195 348 c 0
 65 348 16 446 16 532 c 0
 16 618 65 716 195 716 c 0
590 708 m 1x8f80
 713 708 l 1
 242 0 l 1
 118 0 l 1
 590 708 l 1x8f80
EndSplineSet
EndChar

StartChar: ampersand
Encoding: 323 38 67
GlifName: ampersand
Width: 726
VWidth: 1048
Flags: HW
HStem: -8 140<189.238 360.5> 291 145<291.069 439 611 700> 520 21G<519.365 558.043> 578 138<294.981 477.473>
VStem: 33 201<158.889 266.029> 79 191<456.34 553.807> 439 172<163.288 291>
LayerCount: 2
Back
Fore
SplineSet
439 291 m 1xfa
 300 291 l 1
 261 282 234 250 234 213 c 0
 234 163 269 132 326 132 c 1
 373 132 410 150 439 185 c 1
 439 291 l 1xfa
362 716 m 1
 465 716 542 692 620 635 c 1
 545 520 l 1
 494 554 433 578 376 578 c 0
 304 578 270 547 270 507 c 0xf6
 270 477 288 453 322 436 c 0
 700 436 l 0
 700 436 700 348 700 291 c 25
 611 291 l 1
 611 126 l 25
 705 -7 l 25
 512 -7 l 1
 455 80 l 17
 411 27 331 -8 252 -8 c 1
 120 -8 33 54 33 185 c 1xfa
 33 269 86 340 173 374 c 1
 115 397 79 458 79 534 c 1xf6
 79 642 173 716 362 716 c 1
EndSplineSet
Colour: ff0000
EndChar

StartChar: quotesingle
Encoding: 324 39 68
GlifName: quotesingle
Width: 153
VWidth: 1048
Flags: HW
HStem: 527 241<48 132>
VStem: 48 84<527 634.968>
LayerCount: 2
Fore
SplineSet
148 768 m 5
 132 527 l 5
 48 527 l 5
 32 768 l 5
 148 768 l 5
EndSplineSet
EndChar

StartChar: parenleft
Encoding: 325 40 69
GlifName: parenleft
Width: 400
VWidth: 1048
Flags: HW
VStem: 19 192<195.804 536.671>
LayerCount: 2
Fore
SplineSet
197 800 m 1
 381 800 l 1
 306 734 211 600 211 371 c 0
 211 141 298 -3 381 -64 c 1
 202 -64 l 1
 90 27 19 176 19 371 c 0
 19 548 92 715 197 800 c 1
EndSplineSet
EndChar

StartChar: parenright
Encoding: 326 41 70
GlifName: parenright
Width: 400
VWidth: 1048
Flags: HW
VStem: 189 192<195.804 536.671>
LayerCount: 2
Fore
SplineSet
19 800 m 1
 203 800 l 1
 308 715 381 548 381 371 c 0
 381 176 310 27 198 -64 c 1
 19 -64 l 1
 102 -3 189 141 189 371 c 0
 189 600 94 734 19 800 c 1
EndSplineSet
EndChar

StartChar: asterisk
Encoding: 327 42 71
GlifName: asterisk
Width: 533
VWidth: 1048
Flags: HW
HStem: 697 20G<80.7094 183.761 328.593 431.645>
VStem: 204 105<702 806>
LayerCount: 2
Fore
SplineSet
204 806 m 1
 309 806 l 1
 309 702 l 1
 285 664 l 1
 313 693 l 1
 426 717 l 1
 450 629 l 1
 330 597 l 1
 306 604 l 1
 324 593 l 1
 400 494 l 1
 321 442 l 1
 256 542 l 1
 191 442 l 1
 112 494 l 1
 188 593 l 1
 206 604 l 1
 183 597 l 1
 63 629 l 1
 86 717 l 1
 199 693 l 1
 228 664 l 1
 204 702 l 1
 204 806 l 1
EndSplineSet
EndChar

StartChar: plus
Encoding: 328 43 72
GlifName: plus
Width: 564
VWidth: 1048
Flags: HW
HStem: 203 128<64 218 346 500>
VStem: 218 128<54 203 331 480>
LayerCount: 2
Fore
SplineSet
218 480 m 5
 346 480 l 5
 346 331 l 5
 500 331 l 5
 500 203 l 5
 346 203 l 5
 346 54 l 5
 218 54 l 5
 218 203 l 5
 64 203 l 5
 64 331 l 5
 218 331 l 5
 218 480 l 5
EndSplineSet
EndChar

StartChar: comma
Encoding: 329 44 73
GlifName: comma
Width: 226
VWidth: 1048
Flags: HW
HStem: -144 222<94 120>
VStem: 24 184
LayerCount: 2
Fore
SplineSet
208 78 m 1
 120 -144 l 5
 24 -144 l 1
 94 78 l 1
 208 78 l 1
EndSplineSet
EndChar

StartChar: hyphen
Encoding: 330 45 74
GlifName: hyphen
Width: 436
VWidth: 1048
Flags: HW
HStem: 215 108<77 414>
VStem: 77 337<215 323>
LayerCount: 2
Fore
SplineSet
77 323 m 5
 414 323 l 5
 414 215 l 1
 77 215 l 1
 77 323 l 5
EndSplineSet
EndChar

StartChar: period
Encoding: 331 46 75
GlifName: period
Width: 241
VWidth: 1048
Flags: HW
HStem: -8 204<58.2979 191.702>
VStem: 23 204<26.13 161.678>
LayerCount: 2
Fore
SplineSet
125 196 m 4
 181 196 227 161 227 94 c 0
 227 26 181 -8 125 -8 c 0
 69 -8 23 26 23 94 c 0
 23 161 69 196 125 196 c 4
EndSplineSet
EndChar

StartChar: slash
Encoding: 332 47 76
GlifName: slash
Width: 402
VWidth: 1048
Flags: HW
HStem: 748 20G<333.507 474>
LayerCount: 2
Fore
SplineSet
1 -35 m 1
 342 768 l 1
 474 768 l 1
 133 -35 l 1
 1 -35 l 1
EndSplineSet
EndChar

StartChar: zero
Encoding: 333 48 77
GlifName: zero
Width: 595
VWidth: 1048
Flags: HW
HStem: -7 160<249.827 346.089> 556 160<250.128 347.057>
VStem: 24 192<190.321 518.754> 380 191<190.968 519.065>
LayerCount: 2
Fore
SplineSet
298 556 m 4
 230 556 216 484 216 358 c 0
 216 222 231 153 297 153 c 0
 365 153 380 220 380 361 c 0
 380 485 367 556 298 556 c 4
299 716 m 0
 468 716 571 589 571 356 c 0
 571 123 468 -7 298 -7 c 0
 130 -7 24 120 24 355 c 0
 24 589 130 716 299 716 c 0
EndSplineSet
EndChar

StartChar: one
Encoding: 334 49 78
GlifName: one
Width: 626
VWidth: 1048
Flags: HW
HStem: 0 160<57 583> 688 20G<249.909 432>
VStem: 240 192<0 509>
LayerCount: 2
Fore
SplineSet
57 160 m 1
 583 160 l 1
 583 0 l 1
 57 0 l 1
 57 160 l 1
304 708 m 1
 432 708 l 1
 432 0 l 1
 240 0 l 1
 240 509 l 1
 66 450 l 1
 66 620 l 1
 304 708 l 1
EndSplineSet
Colour: ff0000
EndChar

StartChar: two
Encoding: 335 50 79
GlifName: two
Width: 595
VWidth: 1048
Flags: HW
HStem: 0 160<296 552.819> 567 149<177.603 337.26>
VStem: 361 184<424.705 543.543>
LayerCount: 2
Fore
SplineSet
296 716 m 0
 423 716 545 638 545 500 c 0
 545 455 527 408 498 368 c 0
 471 330 436 291 392 250 c 2
 296 160 l 1
 554 160 l 1
 553 0 l 1
 44 0 l 1
 44 130 l 1
 283 360 l 2
 337 414 361 448 361 489 c 0
 361 528 335 567 271 567 c 0
 213 567 158 543 113 502 c 1
 38 622 l 1
 110 680 170 716 296 716 c 0
EndSplineSet
EndChar

StartChar: three
Encoding: 336 51 80
GlifName: three
Width: 595
VWidth: 1048
Flags: HW
HStem: -8 152<164.094 357.571> 558 150<69 320>
VStem: 384 192<170.276 281.704>
LayerCount: 2
Fore
SplineSet
69 708 m 1
 551 708 l 0
 551 596 l 0
 393 425 l 1
 474 425 576 374 576 233 c 0
 576 58 444 -8 284 -8 c 0
 174 -8 98 19 18 78 c 1
 93 204 l 1
 142 169 209 144 286 144 c 0
 353 144 384 176 384 230 c 0
 384 280 341 306 288 306 c 2
 231 306 l 1
 189 419 l 1
 320 558 l 1
 69 558 l 1
 69 708 l 1
EndSplineSet
EndChar

StartChar: four
Encoding: 337 52 81
GlifName: four
Width: 595
VWidth: 1048
Flags: HW
HStem: 0 21G<348 524> 123 160<219 348 524 595> 688 20G<268.329 477>
VStem: 348 176<0 122.91 283.02 409>
LayerCount: 2
Fore
SplineSet
280 708 m 5
 477 708 l 1
 219 283 l 1
 348 283 l 1
 348 409 l 1
 524 474 l 1
 524 283 l 1
 595 283 l 1
 595 123 l 1
 524 123 l 1
 524 0 l 1
 348 0 l 1
 348 123 l 1
 32 123 l 1
 32 283 l 1
 280 708 l 5
EndSplineSet
EndChar

StartChar: five
Encoding: 338 53 82
GlifName: five
Width: 595
VWidth: 1048
Flags: HW
HStem: -8 149<158.887 344.088> 324 138<265.769 422.237> 548 160<216.334 524>
VStem: 39 174<398 548> 380 192<176.294 301.583>
LayerCount: 2
Fore
SplineSet
41 708 m 1
 524 708 l 1
 524 548 l 1
 216 548 l 1
 213 398 l 1
 237 429 290 462 357 462 c 0
 485 462 572 394 572 240 c 0
 572 88 486 -8 280 -8 c 0
 174 -8 112 19 14 69 c 1
 83 208 l 1
 123 175 191 141 262 141 c 0
 336 141 380 173 380 238 c 0
 380 298 351 324 292 324 c 0
 252 324 228 303 210 276 c 1
 39 276 l 1
 41 708 l 1
EndSplineSet
EndChar

StartChar: six
Encoding: 339 54 83
GlifName: six
Width: 595
VWidth: 1048
Flags: HW
HStem: -8 158<243.343 353.92> 332 137<272.395 433> 562 154<259.283 428.508>
VStem: 24 192<176.164 495.781> 379 192<177.039 308.336>
LayerCount: 2
Back
SplineSet
310.83203125 391 m 4
 231.83203125 391 181.83203125 333 181.83203125 250 c 4
 181.83203125 154 231.83203125 100 310.83203125 100 c 4
 390.83203125 100 436.83203125 154 436.83203125 246 c 4
 436.83203125 336 390.83203125 391 310.83203125 391 c 4
431.83203125 707 m 5
 194.83203125 426 l 5
 229.83203125 466 280.83203125 495 337.83203125 495 c 4
 465.83203125 495 564.83203125 403 564.83203125 246 c 4
 564.83203125 83 451.83203125 -8 307.83203125 -8 c 4
 146.83203125 -8 53.83203125 92 53.83203125 253 c 4
 53.83203125 341 70.83203125 430 147.83203125 527 c 4
 190.83203125 581 246.83203125 650 292.83203125 707 c 5
 431.83203125 707 l 5
EndSplineSet
Fore
SplineSet
318 716 m 0
 400 716 479 704 560 638 c 1
 483 512 l 1
 437 540 385 562 331 562 c 0
 255 562 213 520 213 385 c 1
 225 429 292 469 361 469 c 0
 505 469 571 372 571 233 c 0
 571 83 478 -8 298 -8 c 0
 133 -8 24 95 24 328 c 0
 24 582 135 716 318 716 c 0
298 332 m 0
 252 332 216 305 216 243 c 0
 216 186 247 150 299 150 c 0
 346 150 379 184 379 244 c 0
 379 307 343 332 298 332 c 0
EndSplineSet
EndChar

StartChar: seven
Encoding: 340 55 84
GlifName: seven
Width: 595
VWidth: 1048
Flags: HW
HStem: 0 21G<113 326.65> 548 160<32 365>
LayerCount: 2
Fore
SplineSet
32 708 m 1
 555 708 l 1
 555 548 l 1
 318 0 l 1
 113 0 l 1
 365 548 l 1
 32 548 l 1
 32 708 l 1
EndSplineSet
Colour: ff0000
EndChar

StartChar: eight
Encoding: 341 56 85
GlifName: eight
Width: 595
VWidth: 1048
Flags: HW
HStem: -7 140<233.541 359.396> 297 137<235.242 359.125> 580 136<237.423 357.033>
VStem: 24 188<154.871 275.975> 42 176<451.903 560.382> 379 174<452.843 560.085> 383 188<158.713 273.629>
LayerCount: 2
Fore
SplineSet
296 716 m 0xe8
 440 716 553 657 553 524 c 0xec
 553 449 514 400 457 371 c 1
 524 343 571 290 571 198 c 0
 571 59 450 -7 296 -7 c 0
 143 -7 24 58 24 198 c 0xf2
 24 290 69 343 136 371 c 1
 80 400 42 449 42 524 c 0
 42 658 152 716 296 716 c 0xe8
299 580 m 0
 246 580 218 551 218 506 c 0
 218 461 244 434 297 434 c 0
 349 434 379 460 379 506 c 0
 379 550 350 580 299 580 c 0
297 297 m 0
 244 297 212 269 212 219 c 0
 212 163 240 133 299 133 c 0
 346 133 383 163 383 211 c 0xf2
 383 268 348 297 297 297 c 0
EndSplineSet
EndChar

StartChar: nine
Encoding: 342 57 86
GlifName: nine
Width: 595
VWidth: 1048
Flags: HW
HStem: -8 153<136.455 327.55> 252 140<236.771 328.222> 556 160<238.788 357.246>
VStem: 24 192<412.598 534.479> 379 192<204.203 533.359>
LayerCount: 2
Fore
SplineSet
296 556 m 0
 249 556 216 530 216 472 c 0
 216 416 252 392 297 392 c 0
 343 392 379 418 379 473 c 0
 379 528 348 556 296 556 c 0
297 716 m 0
 462 716 571 614 571 381 c 0
 571 106 452 -8 269 -8 c 1
 187 -8 118 8 28 62 c 1
 91 197 l 1
 129 165 175 145 249 145 c 0
 346 145 382 201 382 336 c 1
 370 292 313 252 244 252 c 0
 85 252 24 341 24 480 c 0
 24 630 141 716 297 716 c 0
EndSplineSet
EndChar

StartChar: colon
Encoding: 343 58 87
GlifName: colon
Width: 303
VWidth: 1048
Flags: HW
HStem: -8 146<117.5 220.5> 381 146<117.5 220.5>
VStem: 96 146<13.5 116.5 402.5 505.5>
LayerCount: 2
Fore
SplineSet
96 454 m 4
 96 494 129 527 169 527 c 4
 209 527 242 494 242 454 c 4
 242 414 209 381 169 381 c 4
 129 381 96 414 96 454 c 4
96 65 m 0
 96 105 129 138 169 138 c 0
 209 138 242 105 242 65 c 0
 242 25 209 -8 169 -8 c 0
 129 -8 96 25 96 65 c 0
EndSplineSet
EndChar

StartChar: semicolon
Encoding: 344 59 88
GlifName: semicolon
Width: 269
VWidth: 1048
Flags: HW
HStem: 381 146<100.5 203.5>
VStem: 79 146<402.5 505.5>
LayerCount: 2
Fore
SplineSet
79 454 m 4
 79 494 112 527 152 527 c 4
 192 527 225 494 225 454 c 4
 225 414 192 381 152 381 c 4
 112 381 79 414 79 454 c 4
208 78 m 1
 120 -144 l 1
 24 -144 l 1
 94 78 l 1
 208 78 l 1
EndSplineSet
EndChar

StartChar: less
Encoding: 345 60 89
GlifName: less
Width: 547
VWidth: 1048
Flags: HW
LayerCount: 2
Fore
SplineSet
48 328 m 1
 464 504 l 1
 492 413 l 1
 48 229 l 1
 48 328 l 1
48 328 m 5
 492 144 l 5
 464 53 l 1
 48 229 l 1
 48 328 l 5
EndSplineSet
EndChar

StartChar: equal
Encoding: 346 61 90
GlifName: equal
Width: 579
VWidth: 1048
Flags: HW
HStem: 120 108<77 497> 330 108<77 497>
LayerCount: 2
Fore
SplineSet
77 438 m 1
 497 438 l 1
 497 330 l 1
 77 330 l 1
 77 438 l 1
77 228 m 1
 497 228 l 1
 497 120 l 1
 77 120 l 1
 77 228 l 1
EndSplineSet
EndChar

StartChar: greater
Encoding: 347 62 91
GlifName: greater
Width: 590
VWidth: 1048
Flags: HW
LayerCount: 2
Fore
SplineSet
500 328 m 1
 500 229 l 1
 56 413 l 1
 84 504 l 1
 500 328 l 1
500 328 m 1
 500 229 l 1
 84 53 l 1
 56 144 l 1
 500 328 l 1
EndSplineSet
EndChar

StartChar: question
Encoding: 348 63 92
GlifName: question
Width: 566
VWidth: 1048
Flags: HW
HStem: -7 204<191.167 316.833> 577 155<189.12 326.537>
VStem: 149 184<240 334.845> 152 204<32.1674 157.833> 342 188<475.55 560.918>
LayerCount: 2
Fore
SplineSet
254 197 m 0xd0
 310 197 356 151 356 95 c 0
 356 39 310 -7 254 -7 c 0
 198 -7 152 39 152 95 c 0
 152 151 198 197 254 197 c 0xd0
278 732 m 0
 407 732 530 667 530 544 c 0
 530 458 494 403 424 368 c 0
 376 344 333 339 333 301 c 2
 333 240 l 1
 163 220 l 1
 155 235 149 269 149 287 c 0
 149 362 179 406 242 436 c 0
 301 464 342 474 342 520 c 0xe8
 342 542 323 577 263 577 c 0
 207 577 176 552 153 510 c 1
 24 604 l 1
 91 702 170 732 278 732 c 0
EndSplineSet
EndChar

StartChar: at
Encoding: 349 64 93
GlifName: at
Width: 1022
Flags: HW
HStem: -120 133<368.017 686.728> 116 134<422.476 522.333> 447 130<438.055 539.492> 687 137<386.914 644.741>
VStem: 24 151<212.447 469.812> 246 160<266.518 411.288> 830 152<269.1 505.333>
LayerCount: 2
Fore
SplineSet
512 824 m 0
 788 824 982 644 982 388 c 0
 982 306 949 200 907 149 c 1
 770 116 l 1
 613 207 l 1
 573 148 510 116 444 116 c 0
 331 116 246 208 246 325 c 0
 246 476 335 577 469 577 c 0
 515 577 558 550 584 509 c 1
 623 569 l 1
 730 569 l 1
 691 303 l 1
 797 250 l 1
 816 276 830 330 830 376 c 0
 830 575 713 687 504 687 c 0
 320 687 175 539 175 352 c 0
 175 138 296 13 501 13 c 0
 606 13 716 41 737 48 c 5
 737 -92 l 5
 715 -98 615 -120 497 -120 c 0
 195 -120 24 48 24 346 c 0
 24 628 224 824 512 824 c 0
491 447 m 0
 438 447 406 398 406 330 c 0
 406 274 431 250 475 250 c 0
 513 250 543 285 551 337 c 2
 562 412 l 1
 548 429 522 447 491 447 c 0
EndSplineSet
EndChar

StartChar: gravecomb
Encoding: 351 768 95
GlifName: gravecomb
Width: 0
VWidth: 1048
Flags: HW
HStem: 737 193
VStem: -144 280
AnchorPoint: "AccentCenter" 0 840 mark 0
LayerCount: 2
Fore
SplineSet
99 737 m 1
 -144 814 l 5
 -85 930 l 1
 136 816 l 1
 99 737 l 1
EndSplineSet
EndChar

StartChar: acutecomb
Encoding: 352 769 96
GlifName: acutecomb
Width: 0
VWidth: 1048
Flags: HW
HStem: 737 193
VStem: -144 280
AnchorPoint: "AccentCenter" 0 840 mark 0
LayerCount: 2
Fore
SplineSet
-107 737 m 1
 -144 816 l 1
 77 930 l 1
 136 814 l 5
 -107 737 l 1
EndSplineSet
EndChar

StartChar: uni0302
Encoding: 353 770 97
GlifName: uni0302
Width: 0
VWidth: 1048
Flags: HW
HStem: 729 201
AnchorPoint: "AccentCenter" 0 840 mark 0
LayerCount: 2
Fore
SplineSet
-188 800 m 25
 -33 930 l 1
 33 930 l 1
 188 800 l 17
 131 729 l 1
 0 835 l 25
 -139 729 l 1
 -188 800 l 25
EndSplineSet
EndChar

StartChar: tildecomb
Encoding: 354 771 98
GlifName: tildecomb
Width: 0
VWidth: 1048
Flags: HW
HStem: 752 94<22.3279 109.528> 819 94<-111.508 -22.9507>
AnchorPoint: "AccentCenter" 0 838 mark 0
LayerCount: 2
Fore
SplineSet
-219 780 m 1x40
 -207 853 -164 913 -81 913 c 0x40
 -2 913 22 846 72 846 c 0
 106 846 117 872 121 905 c 1
 219 889 l 1
 202 795 157 752 76 752 c 0x80
 -2 752 -21 819 -70 819 c 0
 -103 819 -119 799 -124 760 c 1
 -219 780 l 1x40
EndSplineSet
EndChar

StartChar: uni030A
Encoding: 356 778 100
GlifName: uni030A_
Width: 0
VWidth: 1048
Flags: HW
HStem: 730 70<-35.3046 35.3046> 880 70<-35.3046 35.3046>
VStem: -110 71<803.541 876.459> 39 71<803.541 876.459>
AnchorPoint: "Ring" 0 840 mark 0
LayerCount: 2
Fore
SplineSet
-39 840 m 0
 -39 816 -22 800 0 800 c 0
 22 800 39 816 39 840 c 0
 39 864 22 880 0 880 c 0
 -22 880 -39 864 -39 840 c 0
-110 840 m 0
 -110 904 -61 950 0 950 c 0
 61 950 110 904 110 840 c 0
 110 776 61 730 0 730 c 0
 -61 730 -110 776 -110 840 c 0
EndSplineSet
EndChar

StartChar: uni0308
Encoding: 357 776 101
GlifName: uni0308
Width: 0
VWidth: 1048
Flags: HW
HStem: 788 138<-162.908 -63.0921 63.0921 162.908>
VStem: -182 138<807.092 906.908> 44 138<807.092 906.908>
AnchorPoint: "AccentCenter" 0 860 mark 0
LayerCount: 2
Fore
SplineSet
44 857 m 4
 44 895 75 926 113 926 c 4
 151 926 182 895 182 857 c 4
 182 819 151 788 113 788 c 4
 75 788 44 819 44 857 c 4
-182 857 m 0
 -182 895 -151 926 -113 926 c 0
 -75 926 -44 895 -44 857 c 0
 -44 819 -75 788 -113 788 c 0
 -151 788 -182 819 -182 857 c 0
EndSplineSet
EndChar

StartChar: dotlessi
Encoding: 372 305 116
GlifName: dotlessi
Width: 314
VWidth: 1048
Flags: HW
HStem: 0 21G<114 242> 415 104<16 170>
VStem: 114 128<0 415> 114 56<415 519>
AnchorPoint: "AccentCenter" 161 686 basechar 0
LayerCount: 2
Fore
SplineSet
0 520 m 1
 276 520 l 1
 276 0 l 1
 84 0 l 1
 84 374 l 1
 0 374 l 1
 0 520 l 1
EndSplineSet
EndChar

StartChar: sterling
Encoding: 409 163 153
GlifName: sterling
Width: 636
Flags: HW
HStem: 0 150<59 122.022 282 588> 285 152<33 482> 572 144<292.819 430.789>
VStem: 97 176<439.237 552.078> 168 176<194.078 282.516>
LayerCount: 2
Fore
SplineSet
33 438 m 1
 482 438 l 1
 482 285 l 1
 33 285 l 1
 33 438 l 1
357 716 m 0
 488 716 554 658 603 582 c 1
 476 498 l 1
 445 547 416 572 360 572 c 0
 303 572 273 544 273 496 c 0
 273 386 344 374 344 268 c 0
 344 223 327 178 282 150 c 1
 588 150 l 1
 588 0 l 1
 59 0 l 1
 59 156 l 1
 104 156 168 178 168 267 c 0
 168 353 97 403 97 510 c 0
 97 626 197 716 357 716 c 0
EndSplineSet
EndChar

StartChar: AE
Encoding: 410 198 154
GlifName: A_E_
Width: 941
VWidth: 1048
Flags: HW
HStem: 0 150<635 918> 153 151<326 443> 293 151<635 840> 557 151<635 918>
VStem: 443 192<150 153 444 556>
AnchorPoint: "AccentCenter" 617 880 basechar 0
LayerCount: 2
Fore
SplineSet
346 708 m 1xd8
 918 708 l 1
 918 557 l 1
 635 557 l 1
 635 444 l 1
 840 444 l 1
 840 293 l 1
 635 293 l 1xb8
 635 150 l 1
 918 150 l 1
 918 0 l 1
 443 0 l 1
 443 153 l 1
 271 153 l 1
 198 0 l 1
 -4 0 l 1
 346 708 l 1xd8
443 556 m 1
 326 304 l 1
 443 304 l 1xd8
 443 556 l 1
EndSplineSet
EndChar

StartChar: Euro
Encoding: 411 8364 155
GlifName: E_uro
Width: 651
Flags: HW
HStem: -8 104<334.256 532.132> 235 80<38 423> 409 80<32 481> 611 104<347.589 531.848>
VStem: 112 128<263.979 406.427>
LayerCount: 2
Fore
SplineSet
435 715 m 1
 522 715 609 677 662 596 c 1
 598 532 l 1
 569 575 511 611 443 611 c 1
 323 611 240 535 240 353 c 1
 240 167 311 96 431 96 c 1
 499 96 548 117 600 170 c 1
 662 98 l 1
 604 40 518 -8 421 -8 c 1
 224 -8 112 132 112 353 c 1
 112 577 238 715 435 715 c 1
38 315 m 1
 450 315 l 1
 423 235 l 1
 38 235 l 5
 38 315 l 1
32 489 m 1
 509 489 l 1
 481 409 l 1
 32 409 l 1
 32 489 l 1
EndSplineSet
EndChar

StartChar: yen
Encoding: 412 165 156
GlifName: yen
Width: 608
VWidth: 1048
Flags: HW
HStem: 0 21G<287 415> 83 108<105 594> 272 108<105 594> 272 3<287 415> 687 20G<48 200.138 498 650>
VStem: 287 128<0 275>
AnchorPoint: "AccentCenter" 320 880 basechar 0
LayerCount: 2
Fore
SplineSet
105 191 m 1xcc
 594 191 l 1
 594 83 l 1
 105 83 l 1
 105 191 l 1xcc
105 380 m 1xec
 594 380 l 1
 594 272 l 1
 105 272 l 1
 105 380 l 1xec
287 275 m 1xdc
 415 275 l 1
 415 0 l 1
 287 0 l 1
 287 275 l 1xdc
292 275 m 1
 508 707 l 1
 650 707 l 1
 410 263 l 1
 292 275 l 1
48 707 m 1
 190 709 l 1
 410 275 l 1
 292 263 l 1
 48 707 l 1
EndSplineSet
EndChar

StartChar: ae
Encoding: 413 230 157
GlifName: ae
Width: 912
Flags: HW
HStem: -8 100<186.815 318.086 517.247 669.525> 218 90<182.091 344 472 678> 423 104<162.043 313.297 511.394 646.437>
VStem: 42 128<109.314 205.066> 344 128<149 218 308 381> 384 48<142.544 436> 432 40<143.14 218> 678 127<308 386.573>
LayerCount: 2
Fore
SplineSet
580 423 m 5xf9
 511 423 472 381 472 308 c 5
 678 308 l 5
 678 320 l 5
 678 383 643 423 580 423 c 5xf9
600 527 m 4
 715 527 805 440 805 294 c 5
 805 267 801 235 794 218 c 5
 472 218 l 5xf9
 472 144 514 92 590 92 c 4
 655 92 689 120 713 162 c 5
 792 95 l 5
 743 25 676 -8 590 -8 c 4
 446 -8 384 81 384 261 c 4xf5
 384 436 436 527 600 527 c 4
170 162 m 4
 170 125 192 92 246 92 c 4
 295 92 328 112 344 149 c 5
 344 218 l 5
 248 218 l 6
 200 218 170 205 170 162 c 4
415 109 m 5
 392 41 326 -8 220 -8 c 4
 116 -8 42 51 42 154 c 4
 42 259 109 308 238 308 c 6
 344 308 l 5
 344 326 l 6xf9
 344 384 307 423 248 423 c 4
 191 423 162 408 136 376 c 5
 62 438 l 5
 108 500 161 527 244 527 c 4
 372 527 429 456 430 339 c 6
 432 167 l 5xf5
 415 109 l 5
EndSplineSet
EndChar

StartChar: eth
Encoding: 414 240 158
GlifName: eth
Width: 640
Flags: HW
HStem: -7 160<248.393 381.665> 393 135<256.41 348.42> 696 20G<148 564>
VStem: 24 192<185.284 350.049> 424 192<194.123 351.487>
LayerCount: 2
Fore
SplineSet
127 656 m 5
 564 716 l 1
 564 608 l 1
 127 541 l 5
 127 656 l 5
216 269 m 0
 216 194 246 153 312 153 c 0
 375 153 424 191 424 268 c 0
 424 301 421 322 414 351 c 1
 389 377 359 393 319 393 c 0
 259 393 216 346 216 269 c 0
374 716 m 1
 489 642 616 495 616 259 c 1
 616 99 509 -7 309 -7 c 1
 117 -7 24 87 24 274 c 1
 24 412 88 528 265 528 c 1
 313 528 361 506 397 468 c 1
 336 573 233 674 148 716 c 1
 374 716 l 1
EndSplineSet
EndChar

StartChar: thorn
Encoding: 415 254 159
GlifName: thorn
Width: 628
VWidth: 1048
Flags: HW
HStem: -7 140<272.59 432.906> 378 150<273.771 373.731> 696 20G<40 228>
VStem: 40 188<-191 130 190 321 394 716> 412 192<172.671 337.236>
LayerCount: 2
Fore
SplineSet
191 130 m 1
 228 190 l 1
 248 151 283 133 316 133 c 0
 366 133 412 168 412 256 c 0
 412 339 368 378 320 378 c 0
 271 378 238 355 223 321 c 1
 186 394 l 1
 195 450 257 528 366 528 c 0
 491 528 604 432 604 259 c 0
 604 77 490 -7 375 -7 c 0
 282 -7 219 28 191 130 c 1
40 -191 m 1
 40 716 l 1
 228 716 l 1
 228 -191 l 1
 40 -191 l 1
EndSplineSet
EndChar

StartChar: oslash
Encoding: 416 248 160
GlifName: oslash
Width: 635
VWidth: 1048
Flags: HW
HStem: -8 150<249.028 380.949> 0 21G<51 190.538> 378 150<253.686 380.274> 500 20G<439.462 579>
VStem: 32 192<169.8 348.535> 411 192<172.414 344.129>
AnchorPoint: "AccentCenter" 293 686 basechar 0
LayerCount: 2
Fore
SplineSet
455 520 m 5x5c
 579 520 l 5
 175 0 l 1
 51 0 l 1
 455 520 l 5x5c
EndSplineSet
Refer: 46 111 N 1 0 0 1 0 0 2
EndChar

StartChar: currency
Encoding: 417 164 161
GlifName: currency
Width: 634
Flags: HW
HStem: -7 21G<82.2985 122 532 571.701> 22 108<257.751 396.249> 389 108<257.751 396.249> 508 20G<82.2985 122 532 571.701>
VStem: 95 108<188.187 330.925> 451 108<188.528 331.267>
LayerCount: 2
Fore
SplineSet
499 179 m 1
 618 60 l 1
 552 -7 l 1
 433 112 l 1
 499 179 l 1
221 112 m 1
 102 -7 l 1
 36 60 l 5
 155 178 l 5
 221 112 l 1
155 342 m 1
 36 461 l 1
 102 528 l 1
 221 409 l 1
 155 342 l 1
432 408 m 1
 552 528 l 1
 618 461 l 1
 498 342 l 1
 432 408 l 1
203 259 m 0
 203 188 258 130 327 130 c 0
 396 130 451 189 451 260 c 0
 451 331 396 389 327 389 c 0
 258 389 203 330 203 259 c 0
95 260 m 0
 95 391 199 497 327 497 c 0
 455 497 559 391 559 260 c 0
 559 129 455 22 327 22 c 0
 199 22 95 129 95 260 c 0
EndSplineSet
EndChar

StartChar: uni0327
Encoding: 419 807 163
GlifName: uni0327
Width: 0
Flags: HW
HStem: -224 90<-160 -68.4567> -215 81<-160 -110.217> -20 20G<-54 54>
VStem: -54 108<-120.593 0>
LayerCount: 2
Fore
SplineSet
-109 -224 m 1xb0
 -135 -224 -158 -220 -173 -215 c 1x70
 -160 -134 l 1
 -113 -134 l 1
 -76 -134 -54 -110 -54 -73 c 1
 -54 0 l 1
 54 0 l 1
 54 -64 l 1
 54 -166 -7 -224 -109 -224 c 1xb0
EndSplineSet
EndChar

StartChar: Thorn
Encoding: 420 222 164
GlifName: T_horn
Width: 602
Flags: HW
HStem: 0 21G<64 192> 151 108<192 341.679> 460 108<192 341.021> 687 20G<64 192>
VStem: 64 128<0 151 259 460 568 707> 372 128<290.889 427.598>
LayerCount: 2
Fore
SplineSet
192 568 m 1
 287 568 l 1
 407 568 500 490 500 356 c 0
 500 236 404 151 281 151 c 1
 192 151 l 1
 192 259 l 1
 273 259 l 1
 336 259 372 294 372 357 c 0
 372 423 336 460 279 460 c 1
 192 460 l 1
 192 568 l 1
64 707 m 1
 192 707 l 1
 192 0 l 1
 64 0 l 1
 64 707 l 1
EndSplineSet
EndChar

StartChar: section
Encoding: 421 167 165
GlifName: section
Width: 549
Flags: HW
HStem: -193 100<159.232 351.127> 668 100<216.916 405.937>
VStem: 20 124<279.594 406.427> 52 124<517.594 630.143> 390 128<-55.7159 67.7618> 422 128<174.305 305.762>
LayerCount: 2
Fore
SplineSet
279 342 m 1049xc0
170 398 m 1
 153 382 144 362 144 337 c 1
 144 283 188 249 261 234 c 1
 300 225 l 0
 430 198 518 130 518 10 c 1
 518 -113 409 -193 244 -193 c 1
 134 -193 38 -141 -12 -56 c 1
 75 10 l 1
 112 -51 169 -93 258 -93 c 1
 350 -93 390 -55 390 10 c 1
 387 72 339 105 254 122 c 1
 216 130 l 0
 100 152 21 217 20 329 c 1xe8
 20 386 43 435 84 470 c 1
 170 398 l 1
404 184 m 1
 416 202 422 223 422 248 c 1
 419 310 371 343 286 360 c 1
 248 368 l 0
 132 390 53 455 52 567 c 1
 52 684 148 768 308 768 c 1
 409 768 492 728 543 651 c 1
 473 590 l 1
 430 647 373 668 310 668 c 1
 224 668 176 632 176 575 c 1
 176 521 220 487 293 472 c 1
 332 463 l 0
 462 436 550 368 550 248 c 1xd4
 550 189 525 144 481 113 c 1
 404 184 l 1
EndSplineSet
EndChar

StartChar: mu
Encoding: 422 181 166
GlifName: mu
Width: 568
VWidth: 1048
Flags: HW
HStem: -8 104<215.445 350.92> 0 108<515 580> 499 20G<56 184 397 525>
VStem: 56 128<-192 519> 169 15<76 140> 169 7<145 221> 397 14<97 129> 515 10<0 108>
AnchorPoint: "AccentCenter" 289 686 basechar 0
LayerCount: 2
Fore
SplineSet
515 108 m 1x63
 580 108 l 1
 580 0 l 1
 515 0 l 1
 515 108 l 1x63
397 307 m 1
 525 307 l 1
 525 0 l 1
 440 0 l 1
 397 97 l 1
 397 307 l 1
169 140 m 1xab
 176 221 l 1xa7
 176 145 200 96 286 96 c 0
 355 96 397 155 397 222 c 1
 397 519 l 1
 525 519 l 1
 525 273 l 1
 411 129 l 1
 411 38 356 -8 283 -8 c 0
 190 -8 169 76 169 140 c 1xab
56 -192 m 1x33
 56 519 l 1
 184 519 l 1
 184 -192 l 1
 56 -192 l 1x33
EndSplineSet
EndChar

StartChar: paragraph
Encoding: 423 182 167
GlifName: paragraph
Width: 526
Flags: HW
HStem: 0 60<444 511> 648 59<444 511>
VStem: 40 260<455.738 629.145> 228 72<0 372> 372 139<0 60 648 707>
LayerCount: 2
Fore
SplineSet
40 547 m 0xe8
 40 641 111 707 212 707 c 0
 300 707 l 1xd8
 300 544 l 1xe8
 300 372 l 1xd8
 300 372 215 372 212 372 c 0
 108 372 40 441 40 547 c 0xe8
228 372 m 1
 300 372 l 1
 300 0 l 1
 228 0 l 1
 228 372 l 1
444 60 m 1
 511 60 l 1
 511 0 l 1
 444 0 l 1
 444 60 l 1
444 707 m 1
 511 707 l 1
 511 648 l 1
 444 648 l 1
 444 707 l 1
372 707 m 1
 444 707 l 1
 444 0 l 1
 372 0 l 1
 372 707 l 1
EndSplineSet
EndChar

StartChar: exclamdown
Encoding: 424 161 168
GlifName: exclamdown
Width: 289
VWidth: 1048
Flags: HW
HStem: 381 146<85.5 188.5>
VStem: 64 146<-196 179.125 402.5 505.5> 73 128<-147.016 275>
LayerCount: 2
Fore
SplineSet
210 454 m 4xc0
 210 414 177 381 137 381 c 4
 97 381 64 414 64 454 c 4
 64 494 97 527 137 527 c 4
 177 527 210 494 210 454 c 4xc0
209 -196 m 5
 65 -196 l 5
 73 275 l 5
 201 275 l 5xa0
 209 -196 l 5
EndSplineSet
EndChar

StartChar: questiondown
Encoding: 425 191 169
GlifName: questiondown
Width: 501
VWidth: 1048
Flags: HW
HStem: -213 108<224.419 372.77> 381 146<228.5 331.5>
VStem: 64 128<-75.1523 63.8375> 207 146<402.5 505.5> 233 120<211.448 318.323>
LayerCount: 2
Fore
SplineSet
353 454 m 4xf0
 353 414 320 381 280 381 c 4
 240 381 207 414 207 454 c 4
 207 494 240 527 280 527 c 4
 320 527 353 494 353 454 c 4xf0
504 -93 m 5
 470 -157 404 -213 283 -213 c 5
 154 -213 64 -145 64 -22 c 5
 64 64 101 121 165 166 c 4
 219 204 233 244 233 282 c 5
 233 295 231 304 228 318 c 5
 347 335 l 5
 351 313 353 298 353 280 c 5xe8
 353 205 327 158 270 117 c 4
 217 79 192 48 192 -14 c 5
 192 -75 236 -105 296 -105 c 5
 350 -105 397 -79 416 -31 c 5
 504 -93 l 5
EndSplineSet
EndChar

StartChar: cent
Encoding: 428 162 172
GlifName: cent
Width: 520
VWidth: 1048
Flags: HW
HStem: -8 104<163 352.497> 423 104<164 353.597>
VStem: 30 128<150.322 363.071> 219 112<-94 618>
LayerCount: 2
Fore
SplineSet
219 618 m 5
 331 618 l 5
 331 -94 l 5
 219 -94 l 5
 219 618 l 5
282 423 m 0
 199 423 158 364 158 254 c 0
 158 142 202 96 282 96 c 0
 333 96 365 113 390 171 c 0
 488 118 l 0
 446 30 361 -8 278 -8 c 0
 124 -8 30 89 30 259 c 0
 30 431 129 527 288 527 c 0
 368 527 446 486 484 405 c 1
 394 353 l 1
 370 401 327 423 282 423 c 0
EndSplineSet
EndChar

StartChar: onequarter
Encoding: 429 188 173
GlifName: onequarter
Width: 727
VWidth: 1048
Flags: HW
HStem: 31 64<497 753> 373 64<43 297>
VStem: 137 80<437 694> 615 76<-64 192>
LayerCount: 2
Fore
SplineSet
577 388 m 1
 661 388 l 1
 497 95 l 5
 415 95 l 5
 577 388 l 1
415 31 m 1
 415 95 l 5
 753 95 l 5
 753 31 l 1
 415 31 l 1
615 -64 m 1
 615 192 l 1
 691 192 l 1
 691 -64 l 1
 615 -64 l 1
473 567 m 1
 539 527 l 1
 329 187 l 1
 265 227 l 1
 473 567 l 1
43 373 m 1
 43 437 l 1
 297 437 l 1
 297 373 l 1
 43 373 l 1
137 694 m 1
 37 640 l 1
 37 713 l 1
 147 772 l 1
 217 772 l 1
 217 437 l 1
 137 437 l 1
 137 694 l 1
EndSplineSet
EndChar

StartChar: onehalf
Encoding: 430 189 174
GlifName: onehalf
Width: 727
VWidth: 1048
Flags: HW
HStem: -64 64<580 758> 316 66<545.585 659.929> 373 64<40 294>
VStem: 134 80<437 694> 674 80<178.24 300.834>
LayerCount: 2
Fore
SplineSet
630 150 m 1xd8
 662 186 674 212 674 252 c 0
 674 286 651 316 612 316 c 0
 573 316 552 304 532 280 c 1
 494 319 l 1
 510 340 544 382 616 382 c 0
 701 382 754 319 754 250 c 0
 754 206 730 163 698 128 c 0
 697 127 580 1 580 0 c 5
 758 0 l 5
 758 -64 l 1
 498 -64 l 1
 498 4 l 5
 498 5 630 150 630 150 c 1xd8
470 567 m 1
 536 527 l 1
 326 187 l 1
 262 227 l 1
 470 567 l 1
40 373 m 1xb8
 40 437 l 1
 294 437 l 1
 294 373 l 1
 40 373 l 1xb8
134 694 m 1
 34 640 l 1
 34 713 l 1
 144 772 l 1
 214 772 l 1
 214 437 l 1
 134 437 l 1
 134 694 l 1
EndSplineSet
EndChar

StartChar: threequarters
Encoding: 431 190 175
GlifName: threequarters
Width: 727
VWidth: 1048
Flags: HW
HStem: 31 64<497 753> 361 64<112.004 226.357> 558 57<202 229.877> 708 64<66 200>
VStem: 243 80<441.808 545.22> 613 80<-64 192>
LayerCount: 2
Fore
SplineSet
66 772 m 1
 299 772 l 0
 299 719 l 0
 202 615 l 1
 247 615 323 583 323 489 c 0
 323 412 260 361 171 361 c 0
 103 361 60 397 37 448 c 1
 89 480 l 1
 104 450 127 425 170 425 c 0
 220 425 243 455 243 490 c 0
 243 533 222 558 177 558 c 2
 125 558 l 1
 125 620 l 1
 200 708 l 1
 66 708 l 1
 66 772 l 1
577 388 m 1
 661 388 l 1
 497 95 l 1
 415 95 l 1
 577 388 l 1
415 31 m 1
 415 95 l 1
 753 95 l 1
 753 31 l 1
 415 31 l 1
613 -64 m 1
 613 192 l 1
 693 192 l 1
 693 -64 l 1
 613 -64 l 1
473 567 m 1
 539 527 l 1
 329 187 l 1
 265 227 l 1
 473 567 l 1
EndSplineSet
EndChar
